<?xml version="1.0" encoding="utf-8"?>
<!-- Generator: Adobe Illustrator 24.0.0, SVG Export Plug-In . SVG Version: 6.00 Build 0)  -->
<svg version="1.1" id="Warstwa_1" xmlns="http://www.w3.org/2000/svg" xmlns:xlink="http://www.w3.org/1999/xlink" x="0px" y="0px"
	 viewBox="0 0 512 512" style="enable-background:new 0 0 512 512;" xml:space="preserve">
<style type="text/css">
	.st0{fill:#FFFFFF;}
</style>
<path class="st0" d="M316,346c-5.5,0-10,4.5-10,10s4.5,10,10,10s10-4.5,10-10S321.5,346,316,346z"/>
<path class="st0" d="M452,0H60C26.9,0,0,26.9,0,60v286c0,33.1,26.9,60,60,60h136c5.5,0,10,4.5,10,10v26c0,5.5-4.5,10-10,10h0
	c-13.4,0-25.9,5.2-35.4,14.6c-5.5,5.5-9.6,12.1-12,19.2c-4.4,12.8,5.4,26.2,19,26.2h176.6c13.6,0,23.4-13.3,19-26.2
	c-6.7-19.6-25.4-33.8-47.3-33.8l0,0c-5.5,0-10-4.5-10-10v-26c0-5.5,4.5-10,10-10h136c33.1,0,60-26.9,60-60V60
	C512,26.9,485.1,0,452,0z M50,20h412c16.5,0,30,13.5,30,30v256h-46V76c0-5.5-4.5-10-10-10h-80c-5.5,0-10,4.5-10,10v230h-50.1
	c-0.1-10.3-0.4-20.5-0.8-30.4c-1.8-40.7-5.7-68-7.8-80c20.6-15.2,26.3-43.3,13.7-65.2l-34.7-60c-1.8-3.1-5.1-5-8.7-5
	c-3.6,0-6.9,1.9-8.7,5l-34.7,60c-11.9,20.6-7.7,47.3,11,63.1c-2.2,12-6.5,40.2-8.4,82.1c-0.4,10-0.7,20.2-0.8,30.4H166V156
	c0-1.6-0.4-3-1-4.3c0-0.1,0-0.1-0.1-0.2l-40-80c-1.7-3.4-5.2-5.5-8.9-5.5s-7.2,2.1-8.9,5.5l-40,80c0,0.1,0,0.1-0.1,0.2
	c-0.6,1.3-1,2.8-1,4.3v150H20V50C20,33.5,33.5,20,50,20z M366,306V86h60v20h-10c-5.5,0-10,4.5-10,10s4.5,10,10,10h10v30h-10
	c-5.5,0-10,4.5-10,10s4.5,10,10,10h10v30h-10c-5.5,0-10,4.5-10,10s4.5,10,10,10h10v40h-10c-5.5,0-10,4.5-10,10s4.5,10,10,10h10v20
	H366z M257.7,205.3c3.6,0,7.2-0.4,10.8-1.2c1.9,11.9,4.6,32.9,6.2,61.9h-37.2c1.7-28.9,4.5-50.3,6.5-62.6
	C248.4,204.7,253,205.3,257.7,205.3z M257.7,185.3c-22.9,0-37.6-24.9-26-45l26-45l26,45C295.2,160.3,280.7,185.3,257.7,185.3z
	 M236.5,286h39c0.2,6.6,0.4,13.3,0.4,20h-39.9C236.1,299.3,236.3,292.6,236.5,286z M126,306V166h20v140H126z M86,306V166h20v140H86z
	 M92.2,146L116,98.4l23.8,47.6H92.2z M344.3,492H167.7c1.5-4.2,3.9-8,7.1-11.2c5.7-5.7,13.2-8.8,21.2-8.8h120
	C329,472,340.2,480.4,344.3,492z M286,452h-60v-46h60V452z M462,386H50c-16.5,0-30-13.5-30-30v-30h472v30
	C492,372.5,478.5,386,462,386z"/>
<path class="st0" d="M276,346h-60c-5.5,0-10,4.5-10,10s4.5,10,10,10h60c5.5,0,10-4.5,10-10S281.5,346,276,346z"/>
</svg>
