<?xml version="1.0" encoding="utf-8"?>
<!-- Generator: Adobe Illustrator 24.0.0, SVG Export Plug-In . SVG Version: 6.00 Build 0)  -->
<svg version="1.1" id="Warstwa_1" xmlns="http://www.w3.org/2000/svg" xmlns:xlink="http://www.w3.org/1999/xlink" x="0px" y="0px"
	 viewBox="0 0 283.46 283.46" style="enable-background:new 0 0 283.46 283.46;" xml:space="preserve">
<style type="text/css">
	.st0{fill:#FFFFFF;}
</style>
<g>
	<path class="st0" d="M75.9,93.1c0,2.57-0.08,4.83-0.25,6.79c-0.16,1.96-0.4,3.68-0.7,5.17c-0.89,4.1-2.65,7.62-5.25,10.56
		c-4.92,5.66-11.68,8.49-20.28,8.49c-7.26,0-13.24-1.96-17.94-5.87c-4.84-4.02-7.64-9.59-8.38-16.71h12.63
		c0.48,2.68,1.29,4.75,2.4,6.2c2.61,3.39,6.41,5.09,11.4,5.09c9.2,0,13.8-5.64,13.8-16.93v-7.6c-4.99,5.1-10.75,7.66-17.27,7.66
		c-7.41,0-13.49-2.68-18.22-8.05c-4.77-5.44-7.15-12.24-7.15-20.4c0-7.94,2.22-14.68,6.65-20.23c4.77-5.89,11.06-8.83,18.89-8.83
		c6.85,0,12.55,2.55,17.1,7.66l0.5-10.83l12.07,3.2V93.1z M63.3,67.37c0-5.29-0.88-9.61-3.71-12.77c-2.87-3.24-6.54-4.86-11.01-4.86
		c-4.77,0-8.53,1.77-11.29,5.31c-2.5,3.17-3.74,7.26-3.74,12.29c0,4.95,1.25,9.02,3.74,12.18c2.72,3.46,6.48,5.2,11.29,5.2
		s8.61-1.75,11.4-5.25C62.55,76.3,63.3,72.33,63.3,67.37z"/>
	<path class="st0" d="M79.94,37.84l11-2.56l1.57,6.37c2.31-2.42,4.36-4.08,6.15-4.97c1.83-0.93,3.99-1.4,6.48-1.4
		c3.32,0,9.39,2.78,13,4.94l-8.37,9.81c-2.38-1.71-4.71-2.57-6.99-2.57c-6.85,0-10.28,5.18-10.28,15.53v28.22H79.94V37.84z"/>
	<path class="st0" d="M153.23,40.55l9.88,7.11l8.05,46.75h-18.71v-5.7c-5.18,4.84-10.75,7.26-16.71,7.26
		c-7.53,0-13.75-2.72-18.66-8.16c-4.88-5.55-7.32-12.48-7.32-20.79c0-9.2,3.1-16.67,9.31-22.41c2.77-2.56,6.11-4.33,9.77-5.27
		c9.03-2.33,16.91-0.01,23.62,6.95L153.23,40.55z M122.61,67.03c0,7.42,2.83,12.88,8.48,16.38c0.83,0.51,1.8,0.86,2.76,1.01
		c6.44,1.04,11.47-0.45,15.08-4.48c2.87-3.32,4.3-7.53,4.3-12.63c0-5.1-1.43-9.31-4.3-12.63c-2.87-3.24-6.59-4.86-11.18-4.86
		c-4.32,0-7.94,1.64-10.84,4.92C124.04,58.05,122.61,62.15,122.61,67.03z"/>
</g>
<path class="st0" d="M92.49,83.84l0.16,21.1h13.69v11.73H92.64v42.69l-11.05,2.67l-1.58-45.37H67.46l5.74-11.76l6.82,0.02
	l-0.08-21.1"/>
<path class="st0" d="M109.38,105.48c0-2.2,0.8-4.1,2.4-5.7c1.6-1.6,3.52-2.4,5.76-2.4c2.27,0,4.21,0.8,5.81,2.4
	c1.6,1.56,2.4,3.48,2.4,5.76c0,2.27-0.8,4.21-2.4,5.81c-1.56,1.6-3.48,2.4-5.76,2.4s-4.21-0.8-5.81-2.4
	C110.18,109.75,109.38,107.79,109.38,105.48z M111.43,159.63c-0.08,0-0.15-0.07-0.15-0.15v-42.66c0-0.08,0.07-0.15,0.15-0.15h12.27
	c0.08,0,0.15,0.07,0.15,0.15l-2.05,41.84"/>
<path class="st0" d="M141,105.57v19.11l19.32-23.8h12.39l-20.76,28.75l22.71,29.79h-13.8l-17.85-21.67l-2.01,1.9v19.77h-12.57
	l2.43-51.18L141,105.57z"/>
<path class="st0" d="M111.23,164.98h10.57l-0.81,49.68l-9.76,4.75v-5.7c-5.18,4.84-10.75,7.26-16.71,7.26
	c-7.53,0-13.75-2.72-18.66-8.16c-4.88-5.55-7.32-12.48-7.32-20.79c0-8.16,2.44-14.96,7.32-20.4c4.88-5.44,10.99-8.16,18.33-8.16
	c6.33,0,12.01,2.61,17.04,7.82V164.98z M81.39,192.03c0,5.22,1.4,9.46,4.19,12.74c2.87,3.32,6.48,4.97,10.84,4.97
	c4.66,0,8.42-1.6,11.29-4.81c2.87-3.32,4.3-7.53,4.3-12.63s-1.43-9.31-4.3-12.63c-2.87-3.24-6.59-4.86-11.18-4.86
	c-4.32,0-7.94,1.64-10.84,4.92C82.82,183.05,81.39,187.15,81.39,192.03z"/>
<path class="st0" d="M126.36,164.98h14.69v5.03c4.4-4.36,9.35-6.54,14.86-6.54c6.33,0,11.27,1.99,14.81,5.98
	c3.05,3.39,4.58,8.92,4.58,16.6v33.36h-12.63v-30.4c0-5.36-0.75-9.07-2.24-11.12c-1.45-2.09-4.1-3.13-7.94-3.13
	c-4.17,0-7.13,1.38-8.89,4.14c-1.71,2.72-2.57,7.47-2.57,14.25v26.26h-12.63L126.36,164.98z"/>
<path class="st0" d="M191.24,166.32l-2.06,49.63l-10.51,3.51v-53.14H191.24z"/>
<g>
	<path class="st0" d="M39.15,163.49l6.62,31.07l15.4-31.07l15.45,31.07l11.2-25.69l-6.43,1.84l-9.33,36.62l-10.92-20.36L40.98,219.4
		l-15.97-55.91H39.15z"/>
</g>
<g>
	<path class="st0" d="M246.43,207.07c-1.64,2.79-2.34,3.51-4.17,5.5c-1.83,1.99-3.78,3.63-5.87,4.92c-2.09,1.29-4.34,2.23-6.76,2.82
		c-2.42,0.6-5.05,0.89-7.88,0.89c-8.12,0-14.64-2.61-19.56-7.82c-4.92-5.25-7.38-12.22-7.38-20.9c0-8.61,2.38-15.57,7.15-20.9
		c4.81-5.25,11.18-7.88,19.11-7.88c8.01,0,14.34,2.55,19,7.66c4.62,5.07,6.93,12.09,6.93,21.07l-0.06,2.96h-39
		c0.34,4.47,1.79,8.03,4.36,10.67c2.57,2.61,5.87,3.91,9.89,3.91c3.13,0,9.8-2.78,11.85-4.27 M234.04,185.11
		c-1.75-6.71-5.98-10.06-12.68-10.06c-1.53,0-2.96,0.23-4.3,0.7c-1.34,0.47-2.56,1.14-3.66,2.01c-1.1,0.88-2.04,1.93-2.82,3.16
		c-0.78,1.23-1.38,2.63-1.79,4.19H234.04z"/>
</g>
<g>
	<g>
		<path class="st0" d="M185.19,150.01c8.89-0.05,16.4-11.8,15.7-20.13c-0.24-2.88-1.79-5.98-3.53-9.67
			c-1.97-4.18-3.13-5.37-4.7-8.46c-1.46-2.88-3.21-7.28-4.04-13.51l-4.88,2.91c-9.49,5.42-15.23,15.65-14.73,26.06
			C169.5,137.2,175.86,150.06,185.19,150.01z"/>
	</g>
</g>
<rect x="178.67" y="154.29" class="st0" width="12.57" height="7.75"/>
</svg>
